<?xml version="1.0" encoding="iso-8859-1"?>
<!-- Uploaded to: SVG Repo, www.svgrepo.com, Generator: SVG Repo Mixer Tools -->
<svg height="800px" width="800px" version="1.1" id="Layer_1" xmlns="http://www.w3.org/2000/svg" xmlns:xlink="http://www.w3.org/1999/xlink" 
	 viewBox="0 0 512 512" xml:space="preserve">
<path style="fill:#C2E7FF;" d="M107.374,38.825c-6.673,0-12.133,5.46-12.133,12.133v448.91c0,6.673,5.46,12.133,12.133,12.133
	h297.251c6.673,0,12.133-5.46,12.133-12.133V50.957c0-6.673-5.46-12.133-12.133-12.133H107.374z"/>
<g>
	<path style="fill:#174461;" d="M343.962,397.953H168.038c-6.701,0-12.133-5.432-12.133-12.133s5.432-12.133,12.133-12.133h175.924
		c6.7,0,12.133,5.432,12.133,12.133S350.662,397.953,343.962,397.953z"/>
	<path style="fill:#174461;" d="M343.962,337.289H168.038c-6.701,0-12.133-5.432-12.133-12.133s5.432-12.133,12.133-12.133h175.924
		c6.7,0,12.133,5.432,12.133,12.133S350.662,337.289,343.962,337.289z"/>
	<path style="fill:#174461;" d="M343.962,276.626H168.038c-6.701,0-12.133-5.432-12.133-12.133c0-6.701,5.432-12.133,12.133-12.133
		h175.924c6.7,0,12.133,5.432,12.133,12.133C356.095,271.194,350.662,276.626,343.962,276.626z"/>
	<path style="fill:#174461;" d="M343.962,215.962H168.038c-6.701,0-12.133-5.432-12.133-12.133s5.432-12.133,12.133-12.133h175.924
		c6.7,0,12.133,5.432,12.133,12.133S350.662,215.962,343.962,215.962z"/>
</g>
<g>
	<path style="fill:#4EB9FF;" d="M367.014,77.649c-6.7,0-12.133-5.432-12.133-12.133V12.133C354.882,5.432,360.315,0,367.014,0
		c6.7,0,12.133,5.432,12.133,12.133v53.384C379.147,72.217,373.714,77.649,367.014,77.649z"/>
	<path style="fill:#4EB9FF;" d="M218.995,77.649c-6.701,0-12.133-5.432-12.133-12.133V12.133C206.863,5.432,212.294,0,218.995,0
		s12.133,5.432,12.133,12.133v53.384C231.128,72.217,225.696,77.649,218.995,77.649z"/>
	<path style="fill:#4EB9FF;" d="M144.986,77.649c-6.701,0-12.133-5.432-12.133-12.133V12.133C132.853,5.432,138.285,0,144.986,0
		c6.701,0,12.133,5.432,12.133,12.133v53.384C157.118,72.217,151.687,77.649,144.986,77.649z"/>
	<path style="fill:#4EB9FF;" d="M293.005,77.649c-6.7,0-12.133-5.432-12.133-12.133V12.133C280.872,5.432,286.305,0,293.005,0
		c6.7,0,12.133,5.432,12.133,12.133v53.384C305.137,72.217,299.704,77.649,293.005,77.649z"/>
</g>
</svg>