<?xml version="1.0" encoding="iso-8859-1"?>
<!-- Uploaded to: SVG Repo, www.svgrepo.com, Generator: SVG Repo Mixer Tools -->
<svg version="1.1" id="Layer_1" xmlns="http://www.w3.org/2000/svg" xmlns:xlink="http://www.w3.org/1999/xlink" 
	 viewBox="0 0 512 512" xml:space="preserve">
<rect x="379.59" y="76.37" style="fill:#5B5D6E;" width="44.14" height="70.62"/>
<polygon style="fill:#91BEF0;" points="494.345,199.952 256,49.883 17.655,199.952 17.655,464.779 494.345,464.779 "/>
<g>
	<polygon style="fill:#E4EAF6;" points="494.345,217.607 476.69,208.451 476.69,464.779 494.345,464.779 	"/>
	<polygon style="fill:#E4EAF6;" points="17.655,217.607 17.655,464.779 35.31,464.779 35.31,208.451 	"/>
</g>
<g>
	<rect x="17.655" y="429.47" style="fill:#C7CFE2;" width="476.69" height="26.483"/>
	<rect x="203.03" y="270.58" style="fill:#C7CFE2;" width="105.93" height="194.21"/>
</g>
<path style="fill:#FFFFFF;" d="M308.966,473.607H203.034c-4.875,0-8.828-3.953-8.828-8.828V270.572c0-4.875,3.953-8.828,8.828-8.828
	h105.931c4.875,0,8.828,3.953,8.828,8.828v194.207C317.793,469.654,313.841,473.607,308.966,473.607z M211.862,455.952h88.276V279.4
	h-88.276V455.952z"/>
<rect x="70.62" y="270.58" style="fill:#B4E1FA;" width="88.28" height="123.59"/>
<polygon style="fill:#A0D2F0;" points="140.138,394.158 70.621,270.572 70.621,349.038 96,394.158 "/>
<polygon style="fill:#DAF0FD;" points="158.897,333.346 123.586,270.572 97.103,270.572 158.897,380.426 "/>
<rect x="70.62" y="270.58" style="fill:#A0D2F0;" width="88.28" height="26.483"/>
<g>
	<polygon style="fill:#B4E1FA;" points="138.483,297.055 123.586,270.572 97.103,270.572 112,297.055 	"/>
	<rect x="353.1" y="270.58" style="fill:#B4E1FA;" width="88.28" height="123.59"/>
</g>
<polygon style="fill:#A0D2F0;" points="422.621,394.158 353.103,270.572 353.103,349.038 378.483,394.158 "/>
<polygon style="fill:#DAF0FD;" points="441.379,333.346 406.069,270.572 379.586,270.572 441.379,380.426 "/>
<rect x="353.1" y="270.58" style="fill:#A0D2F0;" width="88.28" height="26.483"/>
<polygon style="fill:#B4E1FA;" points="420.966,297.055 406.069,270.572 379.586,270.572 394.483,297.055 "/>
<path style="fill:#FFFFFF;" d="M441.379,261.745h-88.276c-4.875,0-8.828,3.953-8.828,8.828v123.586c0,4.875,3.953,8.828,8.828,8.828
	h88.276c4.875,0,8.828-3.953,8.828-8.828V270.572C450.207,265.697,446.254,261.745,441.379,261.745z M432.552,305.883h-26.483
	v-26.482h26.483V305.883z M388.414,279.4v26.482h-26.483V279.4H388.414z M361.931,323.538h26.483v61.793h-26.483V323.538z
	 M406.069,385.331v-61.793h26.483v61.793H406.069z"/>
<circle style="fill:#B4E1FA;" cx="256" cy="173.47" r="35.31"/>
<path style="fill:#C7CFE2;" d="M17.655,234.207L256,79.026l238.345,155.181v-25.434L270.45,62.999
	c-8.783-5.719-20.115-5.719-28.898,0L17.655,208.773V234.207z"/>
<path style="fill:#707487;" d="M241.55,42.683L4.813,196.818C1.811,198.772,0,202.112,0,205.695v5.254
	c0,6.214,6.892,9.951,12.099,6.56L256,58.71l243.901,158.798c5.207,3.391,12.099-0.346,12.099-6.56v-5.254
	c0-3.583-1.811-6.923-4.813-8.877L270.45,42.683C261.665,36.963,250.335,36.963,241.55,42.683z"/>
<path style="fill:#A0D2F0;" d="M256,164.641c14.812,0,27.448,9.139,32.692,22.069c1.661-4.095,2.618-8.552,2.618-13.241
	c0-19.501-15.809-35.31-35.31-35.31s-35.31,15.809-35.31,35.31c0,4.69,0.958,9.146,2.618,13.241
	C228.552,173.78,241.188,164.641,256,164.641z"/>
<g>
	<path style="fill:#FFFFFF;" d="M256,217.607c-24.338,0-44.138-19.8-44.138-44.138s19.8-44.138,44.138-44.138
		s44.138,19.8,44.138,44.138S280.338,217.607,256,217.607z M256,146.986c-14.602,0-26.483,11.88-26.483,26.483
		s11.881,26.483,26.483,26.483c14.602,0,26.483-11.88,26.483-26.483S270.602,146.986,256,146.986z"/>
	<path style="fill:#FFFFFF;" d="M158.897,261.745H70.621c-4.875,0-8.828,3.953-8.828,8.828v123.586c0,4.875,3.953,8.828,8.828,8.828
		h88.276c4.875,0,8.828-3.953,8.828-8.828V270.572C167.724,265.697,163.772,261.745,158.897,261.745z M150.069,305.883h-26.483
		v-26.482h26.483V305.883z M105.931,279.4v26.482H79.448V279.4H105.931z M79.448,323.538h26.483v61.793H79.448V323.538z
		 M123.586,385.331v-61.793h26.483v61.793H123.586z"/>
</g>
<path style="fill:#8F96AC;" d="M507.586,473.607H4.414c-2.438,0-4.414-1.976-4.414-4.414v-8.828c0-2.438,1.976-4.414,4.414-4.414
	h503.172c2.438,0,4.414,1.976,4.414,4.414v8.828C512,471.63,510.024,473.607,507.586,473.607z"/>
<path style="fill:#6F7589;" d="M428.138,85.193h-52.966c-2.438,0-4.414-1.976-4.414-4.414v-8.828c0-2.438,1.976-4.414,4.414-4.414
	h52.966c2.438,0,4.414,1.976,4.414,4.414v8.828C432.552,83.217,430.575,85.193,428.138,85.193z"/>
</svg>